<svg xmlns="http://www.w3.org/2000/svg" viewBox="0 0 720 260" role="img" aria-label="Decompilation progress over time">
<style>text{font:11px system-ui,sans-serif;fill:#666}.title{font-size:13px;font-weight:600;fill:#222}.axis{stroke:#ddd;stroke-width:1}@media (prefers-color-scheme:dark){svg{background-color:#0d1117}text{fill:#999}.title{fill:#fff}.axis{stroke:#344}}</style>
<line class="axis" x1="56" y1="224.0" x2="704" y2="224.0" opacity="0.6"/>
<text x="48" y="228.0" text-anchor="end">0.00%</text>
<line class="axis" x1="56" y1="180.0" x2="704" y2="180.0" opacity="0.6"/>
<text x="48" y="184.0" text-anchor="end">0.25%</text>
<line class="axis" x1="56" y1="136.0" x2="704" y2="136.0" opacity="0.6"/>
<text x="48" y="140.0" text-anchor="end">0.50%</text>
<line class="axis" x1="56" y1="92.0" x2="704" y2="92.0" opacity="0.6"/>
<text x="48" y="96.0" text-anchor="end">0.75%</text>
<line class="axis" x1="56" y1="48.0" x2="704" y2="48.0" opacity="0.6"/>
<text x="48" y="52.0" text-anchor="end">1.00%</text>
<polygon points="56.0,178.0 523.3,178.0 523.3,178.0 523.5,178.0 523.5,178.0 656.0,178.0 656.0,178.0 704.0,178.0 704.0,224.0 656.0,224.0 656.0,224.0 523.5,224.0 523.5,224.0 523.3,224.0 523.3,224.0 56.0,224.0" fill="#48d" />
<polygon points="56.0,164.6 523.3,164.6 523.3,157.5 523.5,157.5 523.5,157.5 656.0,157.5 656.0,150.9 704.0,150.9 704.0,178.0 656.0,178.0 656.0,178.0 523.5,178.0 523.5,178.0 523.3,178.0 523.3,178.0 56.0,178.0" fill="#5b6" />
<polygon points="56.0,138.4 523.3,138.4 523.3,131.3 523.5,131.3 523.5,131.3 656.0,131.3 656.0,124.7 704.0,124.7 704.0,150.9 656.0,150.9 656.0,157.5 523.5,157.5 523.5,157.5 523.3,157.5 523.3,164.6 56.0,164.6" fill="#da4" />
<polygon points="56.0,137.3 523.3,137.3 523.3,130.2 523.5,130.2 523.5,130.2 656.0,130.2 656.0,123.6 704.0,123.6 704.0,124.7 656.0,124.7 656.0,131.3 523.5,131.3 523.5,131.3 523.3,131.3 523.3,138.4 56.0,138.4" fill="#a7d" />
<line class="axis" x1="56" y1="224" x2="704" y2="224"/>
<text x="56.0" y="242" text-anchor="start">2026-09-17</text>
<text x="656.0" y="242" text-anchor="middle">2026-09-18</text>
<text class="title" x="56" y="20">Matched decompilation: 0.570% (39,505 / 6,925,558 bytes, 18 / 499 units)</text>
<rect x="56" y="28" width="9" height="9" fill="#48d"/>
<text x="70" y="36">ProjectG</text>
<rect x="184" y="28" width="9" height="9" fill="#5b6"/>
<text x="198" y="36">Wangreal</text>
<rect x="312" y="28" width="9" height="9" fill="#da4"/>
<text x="326" y="36">Fresh</text>
<rect x="440" y="28" width="9" height="9" fill="#a7d"/>
<text x="454" y="36">shared</text>
</svg>
