<svg xmlns="http://www.w3.org/2000/svg" viewBox="0 0 720 260" role="img" aria-label="Decompilation progress over time">
<style>text{font:11px system-ui,sans-serif;fill:#666}.title{font-size:13px;font-weight:600;fill:#222}.axis{stroke:#ddd;stroke-width:1}@media (prefers-color-scheme:dark){svg{background-color:#0d1117}text{fill:#999}.title{fill:#fff}.axis{stroke:#344}}</style>
<line class="axis" x1="56" y1="224.0" x2="704" y2="224.0" opacity="0.6"/>
<text x="48" y="228.0" text-anchor="end">0.00%</text>
<line class="axis" x1="56" y1="180.0" x2="704" y2="180.0" opacity="0.6"/>
<text x="48" y="184.0" text-anchor="end">0.62%</text>
<line class="axis" x1="56" y1="136.0" x2="704" y2="136.0" opacity="0.6"/>
<text x="48" y="140.0" text-anchor="end">1.25%</text>
<line class="axis" x1="56" y1="92.0" x2="704" y2="92.0" opacity="0.6"/>
<text x="48" y="96.0" text-anchor="end">1.88%</text>
<line class="axis" x1="56" y1="48.0" x2="704" y2="48.0" opacity="0.6"/>
<text x="48" y="52.0" text-anchor="end">2.50%</text>
<polygon points="56.0,205.6 267.1,205.6 267.1,205.6 267.2,205.6 267.2,205.6 327.0,205.6 327.0,205.6 511.4,205.6 511.4,205.6 525.9,205.6 525.9,205.6 551.8,205.6 551.8,205.6 554.2,205.6 554.2,205.6 556.7,205.6 556.7,205.6 558.6,205.6 558.6,205.6 566.0,205.6 566.0,205.6 630.1,205.6 630.1,205.6 646.6,205.6 646.6,205.6 656.0,205.6 656.0,205.6 704.0,205.6 704.0,224.0 656.0,224.0 656.0,224.0 646.6,224.0 646.6,224.0 630.1,224.0 630.1,224.0 566.0,224.0 566.0,224.0 558.6,224.0 558.6,224.0 556.7,224.0 556.7,224.0 554.2,224.0 554.2,224.0 551.8,224.0 551.8,224.0 525.9,224.0 525.9,224.0 511.4,224.0 511.4,224.0 327.0,224.0 327.0,224.0 267.2,224.0 267.2,224.0 267.1,224.0 267.1,224.0 56.0,224.0" fill="#48d" />
<polygon points="56.0,200.2 267.1,200.2 267.1,197.4 267.2,197.4 267.2,197.4 327.0,197.4 327.0,194.8 511.4,194.8 511.4,194.8 525.9,194.8 525.9,181.1 551.8,181.1 551.8,176.7 554.2,176.7 554.2,171.3 556.7,171.3 556.7,168.7 558.6,168.7 558.6,160.8 566.0,160.8 566.0,158.4 630.1,158.4 630.1,132.7 646.6,132.7 646.6,125.6 656.0,125.6 656.0,115.4 704.0,115.4 704.0,205.6 656.0,205.6 656.0,205.6 646.6,205.6 646.6,205.6 630.1,205.6 630.1,205.6 566.0,205.6 566.0,205.6 558.6,205.6 558.6,205.6 556.7,205.6 556.7,205.6 554.2,205.6 554.2,205.6 551.8,205.6 551.8,205.6 525.9,205.6 525.9,205.6 511.4,205.6 511.4,205.6 327.0,205.6 327.0,205.6 267.2,205.6 267.2,205.6 267.1,205.6 267.1,205.6 56.0,205.6" fill="#5b6" />
<polygon points="56.0,189.8 267.1,189.8 267.1,186.9 267.2,186.9 267.2,186.9 327.0,186.9 327.0,184.3 511.4,184.3 511.4,182.7 525.9,182.7 525.9,169.0 551.8,169.0 551.8,164.6 554.2,164.6 554.2,159.2 556.7,159.2 556.7,156.7 558.6,156.7 558.6,148.7 566.0,148.7 566.0,146.3 630.1,146.3 630.1,120.6 646.6,120.6 646.6,113.5 656.0,113.5 656.0,103.3 704.0,103.3 704.0,115.4 656.0,115.4 656.0,125.6 646.6,125.6 646.6,132.7 630.1,132.7 630.1,158.4 566.0,158.4 566.0,160.8 558.6,160.8 558.6,168.7 556.7,168.7 556.7,171.3 554.2,171.3 554.2,176.7 551.8,176.7 551.8,181.1 525.9,181.1 525.9,194.8 511.4,194.8 511.4,194.8 327.0,194.8 327.0,197.4 267.2,197.4 267.2,197.4 267.1,197.4 267.1,200.2 56.0,200.2" fill="#da4" />
<polygon points="56.0,189.3 267.1,189.3 267.1,186.5 267.2,186.5 267.2,186.5 327.0,186.5 327.0,183.8 511.4,183.8 511.4,182.3 525.9,182.3 525.9,168.5 551.8,168.5 551.8,164.2 554.2,164.2 554.2,158.8 556.7,158.8 556.7,156.2 558.6,156.2 558.6,148.2 566.0,148.2 566.0,145.9 630.1,145.9 630.1,120.2 646.6,120.2 646.6,113.0 656.0,113.0 656.0,102.9 704.0,102.9 704.0,103.3 656.0,103.3 656.0,113.5 646.6,113.5 646.6,120.6 630.1,120.6 630.1,146.3 566.0,146.3 566.0,148.7 558.6,148.7 558.6,156.7 556.7,156.7 556.7,159.2 554.2,159.2 554.2,164.6 551.8,164.6 551.8,169.0 525.9,169.0 525.9,182.7 511.4,182.7 511.4,184.3 327.0,184.3 327.0,186.9 267.2,186.9 267.2,186.9 267.1,186.9 267.1,189.8 56.0,189.8" fill="#a7d" />
<line class="axis" x1="56" y1="224" x2="704" y2="224"/>
<text x="56.0" y="242" text-anchor="start">2026-09-17</text>
<text x="656.0" y="242" text-anchor="middle">2026-09-20</text>
<text class="title" x="56" y="20">Matched decompilation: 1.720% (119,149 / 6,925,558 bytes, 28 / 499 units)</text>
<rect x="56" y="28" width="9" height="9" fill="#48d"/>
<text x="70" y="36">ProjectG</text>
<rect x="184" y="28" width="9" height="9" fill="#5b6"/>
<text x="198" y="36">Wangreal</text>
<rect x="312" y="28" width="9" height="9" fill="#da4"/>
<text x="326" y="36">Fresh</text>
<rect x="440" y="28" width="9" height="9" fill="#a7d"/>
<text x="454" y="36">shared</text>
</svg>
