<svg xmlns="http://www.w3.org/2000/svg" viewBox="0 0 720 260" role="img" aria-label="Decompilation progress over time">
<style>text{font:11px system-ui,sans-serif;fill:#666}.title{font-size:13px;font-weight:600;fill:#222}.axis{stroke:#ddd;stroke-width:1}@media (prefers-color-scheme:dark){svg{background-color:#0d1117}text{fill:#999}.title{fill:#fff}.axis{stroke:#344}}</style>
<line class="axis" x1="56" y1="224.0" x2="704" y2="224.0" opacity="0.6"/>
<text x="48" y="228.0" text-anchor="end">0.00%</text>
<line class="axis" x1="56" y1="180.0" x2="704" y2="180.0" opacity="0.6"/>
<text x="48" y="184.0" text-anchor="end">0.62%</text>
<line class="axis" x1="56" y1="136.0" x2="704" y2="136.0" opacity="0.6"/>
<text x="48" y="140.0" text-anchor="end">1.25%</text>
<line class="axis" x1="56" y1="92.0" x2="704" y2="92.0" opacity="0.6"/>
<text x="48" y="96.0" text-anchor="end">1.88%</text>
<line class="axis" x1="56" y1="48.0" x2="704" y2="48.0" opacity="0.6"/>
<text x="48" y="52.0" text-anchor="end">2.50%</text>
<polygon points="56.0,205.6 215.0,205.6 215.0,205.6 215.1,205.6 215.1,205.6 260.1,205.6 260.1,205.6 399.0,205.6 399.0,205.6 409.9,205.6 409.9,205.6 429.4,205.6 429.4,205.6 431.3,205.6 431.3,205.6 433.2,205.6 433.2,205.6 434.6,205.6 434.6,205.6 440.2,205.6 440.2,205.6 488.4,205.6 488.4,205.6 500.8,205.6 500.8,205.6 507.9,205.6 507.9,205.6 510.7,205.6 510.7,205.6 656.0,205.6 656.0,205.6 704.0,205.6 704.0,224.0 656.0,224.0 656.0,224.0 510.7,224.0 510.7,224.0 507.9,224.0 507.9,224.0 500.8,224.0 500.8,224.0 488.4,224.0 488.4,224.0 440.2,224.0 440.2,224.0 434.6,224.0 434.6,224.0 433.2,224.0 433.2,224.0 431.3,224.0 431.3,224.0 429.4,224.0 429.4,224.0 409.9,224.0 409.9,224.0 399.0,224.0 399.0,224.0 260.1,224.0 260.1,224.0 215.1,224.0 215.1,224.0 215.0,224.0 215.0,224.0 56.0,224.0" fill="#48d" />
<polygon points="56.0,200.2 215.0,200.2 215.0,197.4 215.1,197.4 215.1,197.4 260.1,197.4 260.1,194.8 399.0,194.8 399.0,194.8 409.9,194.8 409.9,181.1 429.4,181.1 429.4,176.7 431.3,176.7 431.3,171.3 433.2,171.3 433.2,168.7 434.6,168.7 434.6,160.8 440.2,160.8 440.2,158.4 488.4,158.4 488.4,132.7 500.8,132.7 500.8,125.6 507.9,125.6 507.9,115.4 510.7,115.4 510.7,113.0 656.0,113.0 656.0,103.3 704.0,103.3 704.0,205.6 656.0,205.6 656.0,205.6 510.7,205.6 510.7,205.6 507.9,205.6 507.9,205.6 500.8,205.6 500.8,205.6 488.4,205.6 488.4,205.6 440.2,205.6 440.2,205.6 434.6,205.6 434.6,205.6 433.2,205.6 433.2,205.6 431.3,205.6 431.3,205.6 429.4,205.6 429.4,205.6 409.9,205.6 409.9,205.6 399.0,205.6 399.0,205.6 260.1,205.6 260.1,205.6 215.1,205.6 215.1,205.6 215.0,205.6 215.0,205.6 56.0,205.6" fill="#5b6" />
<polygon points="56.0,189.8 215.0,189.8 215.0,186.9 215.1,186.9 215.1,186.9 260.1,186.9 260.1,184.3 399.0,184.3 399.0,182.7 409.9,182.7 409.9,169.0 429.4,169.0 429.4,164.6 431.3,164.6 431.3,159.2 433.2,159.2 433.2,156.7 434.6,156.7 434.6,148.7 440.2,148.7 440.2,146.3 488.4,146.3 488.4,120.6 500.8,120.6 500.8,113.5 507.9,113.5 507.9,103.3 510.7,103.3 510.7,101.0 656.0,101.0 656.0,91.2 704.0,91.2 704.0,103.3 656.0,103.3 656.0,113.0 510.7,113.0 510.7,115.4 507.9,115.4 507.9,125.6 500.8,125.6 500.8,132.7 488.4,132.7 488.4,158.4 440.2,158.4 440.2,160.8 434.6,160.8 434.6,168.7 433.2,168.7 433.2,171.3 431.3,171.3 431.3,176.7 429.4,176.7 429.4,181.1 409.9,181.1 409.9,194.8 399.0,194.8 399.0,194.8 260.1,194.8 260.1,197.4 215.1,197.4 215.1,197.4 215.0,197.4 215.0,200.2 56.0,200.2" fill="#da4" />
<polygon points="56.0,189.3 215.0,189.3 215.0,186.5 215.1,186.5 215.1,186.5 260.1,186.5 260.1,183.8 399.0,183.8 399.0,182.3 409.9,182.3 409.9,168.5 429.4,168.5 429.4,164.2 431.3,164.2 431.3,158.8 433.2,158.8 433.2,156.2 434.6,156.2 434.6,148.2 440.2,148.2 440.2,145.9 488.4,145.9 488.4,120.2 500.8,120.2 500.8,113.0 507.9,113.0 507.9,102.9 510.7,102.9 510.7,100.5 656.0,100.5 656.0,90.8 704.0,90.8 704.0,91.2 656.0,91.2 656.0,101.0 510.7,101.0 510.7,103.3 507.9,103.3 507.9,113.5 500.8,113.5 500.8,120.6 488.4,120.6 488.4,146.3 440.2,146.3 440.2,148.7 434.6,148.7 434.6,156.7 433.2,156.7 433.2,159.2 431.3,159.2 431.3,164.6 429.4,164.6 429.4,169.0 409.9,169.0 409.9,182.7 399.0,182.7 399.0,184.3 260.1,184.3 260.1,186.9 215.1,186.9 215.1,186.9 215.0,186.9 215.0,189.8 56.0,189.8" fill="#a7d" />
<line class="axis" x1="56" y1="224" x2="704" y2="224"/>
<text x="56.0" y="242" text-anchor="start">2026-09-17</text>
<text x="656.0" y="242" text-anchor="middle">2026-09-22</text>
<text class="title" x="56" y="20">Matched decompilation: 1.893% (131,077 / 6,925,558 bytes, 30 / 499 units)</text>
<rect x="56" y="28" width="9" height="9" fill="#48d"/>
<text x="70" y="36">ProjectG</text>
<rect x="184" y="28" width="9" height="9" fill="#5b6"/>
<text x="198" y="36">Wangreal</text>
<rect x="312" y="28" width="9" height="9" fill="#da4"/>
<text x="326" y="36">Fresh</text>
<rect x="440" y="28" width="9" height="9" fill="#a7d"/>
<text x="454" y="36">shared</text>
</svg>
